<svg width="128" height="64" viewBox="0 0 128 64" fill="none" xmlns="http://www.w3.org/2000/svg">
<rect x="0.5" y="0.5" width="127" height="63" fill="black"/>
<rect x="0.5" y="0.5" width="127" height="63" stroke="black"/>
<g filter="url(#filter0_f_11_281)">
<path d="M109.622 6C116.249 6 121.622 11.3726 121.622 18V24H117.858C116.374 22.1471 114.099 21 111.612 21H95.3877C92.901 21 90.6259 22.1471 89.1416 24H85.6221V18C85.6221 11.3726 90.9947 6 97.6221 6H109.622Z" fill="#01D9FA"/>
</g>
<g filter="url(#filter1_f_11_281)">
<path d="M68 9C74.6274 9 80 14.3726 80 21V24H75.8584C74.3741 22.1471 72.099 21 69.6123 21H53.3877C50.901 21 48.6259 22.1471 47.1416 24H44V21C44 14.3726 49.3726 9 56 9H68Z" fill="#01D9FA"/>
</g>
<defs>
<filter id="filter0_f_11_281" x="84.6221" y="5" width="38" height="20" filterUnits="userSpaceOnUse" color-interpolation-filters="sRGB">
<feFlood flood-opacity="0" result="BackgroundImageFix"/>
<feBlend mode="normal" in="SourceGraphic" in2="BackgroundImageFix" result="shape"/>
<feGaussianBlur stdDeviation="0.5" result="effect1_foregroundBlur_11_281"/>
</filter>
<filter id="filter1_f_11_281" x="43" y="8" width="38" height="17" filterUnits="userSpaceOnUse" color-interpolation-filters="sRGB">
<feFlood flood-opacity="0" result="BackgroundImageFix"/>
<feBlend mode="normal" in="SourceGraphic" in2="BackgroundImageFix" result="shape"/>
<feGaussianBlur stdDeviation="0.5" result="effect1_foregroundBlur_11_281"/>
</filter>
</defs>
</svg>
