<svg width="128" height="64" viewBox="0 0 128 64" fill="none" xmlns="http://www.w3.org/2000/svg">
<rect x="-0.5" y="0.5" width="127" height="63" transform="matrix(-1 0 0 1 127 0)" fill="black"/>
<rect x="-0.5" y="0.5" width="127" height="63" transform="matrix(-1 0 0 1 127 0)" stroke="black"/>
<g filter="url(#filter0_f_11_267)">
<path d="M18.3779 6C11.7505 6 6.37793 11.3726 6.37793 18V24H10.1416C11.6259 22.1471 13.901 21 16.3877 21H32.6123C35.099 21 37.3741 22.1471 38.8584 24H42.3779V18C42.3779 11.3726 37.0053 6 30.3779 6H18.3779Z" fill="#00D9FA"/>
</g>
<g filter="url(#filter1_f_11_267)">
<path d="M60 9C53.3726 9 48 14.3726 48 21V24H52.1416C53.6259 22.1471 55.901 21 58.3877 21H74.6123C77.099 21 79.3741 22.1471 80.8584 24H84V21C84 14.3726 78.6274 9 72 9H60Z" fill="#00D9FA"/>
</g>
<defs>
<filter id="filter0_f_11_267" x="5.37793" y="5" width="38" height="20" filterUnits="userSpaceOnUse" color-interpolation-filters="sRGB">
<feFlood flood-opacity="0" result="BackgroundImageFix"/>
<feBlend mode="normal" in="SourceGraphic" in2="BackgroundImageFix" result="shape"/>
<feGaussianBlur stdDeviation="0.5" result="effect1_foregroundBlur_11_267"/>
</filter>
<filter id="filter1_f_11_267" x="47" y="8" width="38" height="17" filterUnits="userSpaceOnUse" color-interpolation-filters="sRGB">
<feFlood flood-opacity="0" result="BackgroundImageFix"/>
<feBlend mode="normal" in="SourceGraphic" in2="BackgroundImageFix" result="shape"/>
<feGaussianBlur stdDeviation="0.5" result="effect1_foregroundBlur_11_267"/>
</filter>
</defs>
</svg>
