<svg width="128" height="64" viewBox="0 0 128 64" fill="none" xmlns="http://www.w3.org/2000/svg">
<rect x="-0.5" y="0.5" width="127" height="63" transform="matrix(-1 0 0 1 127 0)" fill="black"/>
<rect x="-0.5" y="0.5" width="127" height="63" transform="matrix(-1 0 0 1 127 0)" stroke="black"/>
<g filter="url(#filter0_f_11_236)">
<path d="M87 47.667C87 53.7421 91.9249 58.667 98 58.667H112C118.075 58.667 123 53.7421 123 47.667V45.6396C106.31 45.5101 94.3311 44.7826 87 41V47.667Z" fill="#01DAFA"/>
</g>
<g filter="url(#filter1_f_11_236)">
<path d="M81 42.3535C74.7326 47.7749 62.6273 49.3773 45.6299 50.3369C47.1411 54.6071 51.2121 57.667 56 57.667H70C76.0751 57.667 81 52.7421 81 46.667V42.3535Z" fill="#01DAFA"/>
</g>
<defs>
<filter id="filter0_f_11_236" x="86" y="40" width="38" height="19.667" filterUnits="userSpaceOnUse" color-interpolation-filters="sRGB">
<feFlood flood-opacity="0" result="BackgroundImageFix"/>
<feBlend mode="normal" in="SourceGraphic" in2="BackgroundImageFix" result="shape"/>
<feGaussianBlur stdDeviation="0.5" result="effect1_foregroundBlur_11_236"/>
</filter>
<filter id="filter1_f_11_236" x="44.6299" y="41.3535" width="37.3701" height="17.3135" filterUnits="userSpaceOnUse" color-interpolation-filters="sRGB">
<feFlood flood-opacity="0" result="BackgroundImageFix"/>
<feBlend mode="normal" in="SourceGraphic" in2="BackgroundImageFix" result="shape"/>
<feGaussianBlur stdDeviation="0.5" result="effect1_foregroundBlur_11_236"/>
</filter>
</defs>
</svg>
