<svg width="128" height="64" viewBox="0 0 128 64" fill="none" xmlns="http://www.w3.org/2000/svg">
<rect x="-0.5" y="0.5" width="127" height="63" transform="matrix(-1 0 0 1 127 0)" fill="black"/>
<rect x="-0.5" y="0.5" width="127" height="63" transform="matrix(-1 0 0 1 127 0)" stroke="black"/>
<g filter="url(#filter0_f_18_88)">
<path d="M69.5146 24C67.9439 25.9019 67 28.3407 67 31V39H102V31C102 28.3407 101.056 25.9019 99.4854 24H69.5146Z" fill="#02DEFE"/>
</g>
<g filter="url(#filter1_f_18_88)">
<path d="M27.9873 24.8545C26.7365 26.6398 26 28.8119 26 31.1572V39.1572H61V31.1572C61 29.9606 60.8074 28.809 60.4541 27.7305L27.9873 24.8545Z" fill="#02DEFE"/>
</g>
<defs>
<filter id="filter0_f_18_88" x="66" y="23" width="37" height="17" filterUnits="userSpaceOnUse" color-interpolation-filters="sRGB">
<feFlood flood-opacity="0" result="BackgroundImageFix"/>
<feBlend mode="normal" in="SourceGraphic" in2="BackgroundImageFix" result="shape"/>
<feGaussianBlur stdDeviation="0.5" result="effect1_foregroundBlur_18_88"/>
</filter>
<filter id="filter1_f_18_88" x="25" y="23.8545" width="37" height="16.3027" filterUnits="userSpaceOnUse" color-interpolation-filters="sRGB">
<feFlood flood-opacity="0" result="BackgroundImageFix"/>
<feBlend mode="normal" in="SourceGraphic" in2="BackgroundImageFix" result="shape"/>
<feGaussianBlur stdDeviation="0.5" result="effect1_foregroundBlur_18_88"/>
</filter>
</defs>
</svg>
