<svg width="128" height="64" viewBox="0 0 128 64" fill="none" xmlns="http://www.w3.org/2000/svg">
<rect x="-0.5" y="0.5" width="127" height="63" transform="matrix(-1 0 0 1 127 0)" fill="black"/>
<rect x="-0.5" y="0.5" width="127" height="63" transform="matrix(-1 0 0 1 127 0)" stroke="black"/>
<g filter="url(#filter0_f_17_39)">
<rect width="36" height="34" rx="11" transform="matrix(-1 0 0 1 103 15)" fill="#01D9F9"/>
</g>
<g filter="url(#filter1_f_17_39)">
<path d="M26.2627 23.6172C26.0931 24.3847 26 25.1815 26 26V38C26 44.0751 30.9249 49 37 49H51C57.0751 49 62 44.0751 62 38V27.1904L26.2627 23.6172Z" fill="#01D9F9"/>
</g>
<defs>
<filter id="filter0_f_17_39" x="66" y="14" width="38" height="36" filterUnits="userSpaceOnUse" color-interpolation-filters="sRGB">
<feFlood flood-opacity="0" result="BackgroundImageFix"/>
<feBlend mode="normal" in="SourceGraphic" in2="BackgroundImageFix" result="shape"/>
<feGaussianBlur stdDeviation="0.5" result="effect1_foregroundBlur_17_39"/>
</filter>
<filter id="filter1_f_17_39" x="25" y="22.6172" width="38" height="27.3828" filterUnits="userSpaceOnUse" color-interpolation-filters="sRGB">
<feFlood flood-opacity="0" result="BackgroundImageFix"/>
<feBlend mode="normal" in="SourceGraphic" in2="BackgroundImageFix" result="shape"/>
<feGaussianBlur stdDeviation="0.5" result="effect1_foregroundBlur_17_39"/>
</filter>
</defs>
</svg>
